<svg xmlns="http://www.w3.org/2000/svg" width="1040" height="870"><!-- Derived from Lucide Orbit
ISC License

Copyright (c) for portions of Lucide are held by Cole Bemis 2013-2022 as part of Feather (MIT). All other copyright (c) for Lucide are held by Lucide Contributors 2022.

Permission to use, copy, modify, and/or distribute this software for any
purpose with or without fee is hereby granted, provided that the above
copyright notice and this permission notice appear in all copies.

THE SOFTWARE IS PROVIDED "AS IS" AND THE AUTHOR DISCLAIMS ALL WARRANTIES
WITH REGARD TO THIS SOFTWARE INCLUDING ALL IMPLIED WARRANTIES OF
MERCHANTABILITY AND FITNESS. IN NO EVENT SHALL THE AUTHOR BE LIABLE FOR
ANY SPECIAL, DIRECT, INDIRECT, OR CONSEQUENTIAL DAMAGES OR ANY DAMAGES
WHATSOEVER RESULTING FROM LOSS OF USE, DATA OR PROFITS, WHETHER IN AN
ACTION OF CONTRACT, NEGLIGENCE OR OTHER TORTIOUS ACTION, ARISING OUT OF
OR IN CONNECTION WITH THE USE OR PERFORMANCE OF THIS SOFTWARE.
--><rect width="100%" height="100%" fill="white"/><text x="32" y="48" font-family="Arial,sans-serif" font-size="24" fill="#252729">reachard / shortlist</text><g transform="translate(70.19999999999999 121.2) scale(4.6000000000000005)"><g transform="translate(1 1)"><g fill="none" stroke="#252729" stroke-width="1.35" stroke-linecap="round" stroke-linejoin="round"><path d="M19.89208 6.71179 A9.5 9.5 0 0 1 10.84224 21.42919"/><path d="M4.10792 17.28821 A9.5 9.5 0 0 1 13.15776 2.57081"/><circle cx="12" cy="12" r="3.25" fill="none"/><circle cx="18.71751" cy="5.28249" r="1.85" fill="none"/><circle cx="5.28249" cy="18.71751" r="1.85" fill="none"/></g></g></g><text x="130" y="292.8" text-anchor="middle" font-family="Arial,sans-serif" font-size="17" fill="#62676d">A009</text><g transform="translate(330.2 121.2) scale(4.6000000000000005)"><g transform="translate(1 1)"><g fill="none" stroke="#252729" stroke-width="1.6" stroke-linecap="round" stroke-linejoin="round"><path d="M19.89208 6.71179 A9.5 9.5 0 0 1 10.84224 21.42919"/><path d="M4.10792 17.28821 A9.5 9.5 0 0 1 13.15776 2.57081"/><circle cx="12" cy="12" r="3.25" fill="none"/><circle cx="18.71751" cy="5.28249" r="1.85" fill="none"/><circle cx="5.28249" cy="18.71751" r="1.85" fill="none"/></g></g></g><text x="390" y="292.8" text-anchor="middle" font-family="Arial,sans-serif" font-size="17" fill="#62676d">A027</text><g transform="translate(590.2 121.2) scale(4.6000000000000005)"><g transform="translate(1 1)"><g fill="none" stroke="#252729" stroke-width="1.85" stroke-linecap="round" stroke-linejoin="round"><path d="M19.89208 6.71179 A9.5 9.5 0 0 1 10.84224 21.42919"/><path d="M4.10792 17.28821 A9.5 9.5 0 0 1 13.15776 2.57081"/><circle cx="12" cy="12" r="3.25" fill="none"/><circle cx="18.71751" cy="5.28249" r="1.85" fill="none"/><circle cx="5.28249" cy="18.71751" r="1.85" fill="none"/></g></g></g><text x="650" y="292.8" text-anchor="middle" font-family="Arial,sans-serif" font-size="17" fill="#62676d">A045</text><g transform="translate(850.2 121.2) scale(4.6000000000000005)"><g transform="translate(1 1)"><g fill="none" stroke="#252729" stroke-width="1.6" stroke-linecap="round" stroke-linejoin="round"><path d="M19.72047 6.46426 A9.5 9.5 0 0 1 13.81269 21.32546"/><path d="M4.27953 17.53574 A9.5 9.5 0 0 1 10.18731 2.67454"/><circle cx="12" cy="12" r="3.25" fill="none"/><circle cx="18.71751" cy="5.28249" r="1.55" fill="none"/><circle cx="5.28249" cy="18.71751" r="1.55" fill="none"/></g></g></g><text x="910" y="292.8" text-anchor="middle" font-family="Arial,sans-serif" font-size="17" fill="#62676d">B025</text><g transform="translate(70.19999999999999 381.2) scale(4.6000000000000005)"><g transform="translate(1 1)"><g fill="none" stroke="#252729" stroke-width="1.6" stroke-linecap="round" stroke-linejoin="round"><path d="M19.89208 6.71179 A9.5 9.5 0 0 1 13.81269 21.32546"/><path d="M4.10792 17.28821 A9.5 9.5 0 0 1 10.18731 2.67454"/><circle cx="12" cy="12" r="3.25" fill="none"/><circle cx="18.71751" cy="5.28249" r="1.85" fill="none"/><circle cx="5.28249" cy="18.71751" r="1.85" fill="none"/></g></g></g><text x="130" y="552.8" text-anchor="middle" font-family="Arial,sans-serif" font-size="17" fill="#62676d">B027</text><g transform="translate(330.2 381.2) scale(4.6000000000000005)"><g transform="translate(1 1)"><g fill="none" stroke="#252729" stroke-width="1.6" stroke-linecap="round" stroke-linejoin="round"><path d="M19.31348 7.28799 A8.7 8.7 0 0 1 10.33996 20.54016"/><path d="M4.68652 16.71201 A8.7 8.7 0 0 1 13.66004 3.45984"/><circle cx="12" cy="12" r="3.25" fill="none"/><circle cx="18.15183" cy="5.84817" r="1.85" fill="none"/><circle cx="5.84817" cy="18.15183" r="1.85" fill="none"/></g></g></g><text x="390" y="552.8" text-anchor="middle" font-family="Arial,sans-serif" font-size="17" fill="#62676d">C027</text><g transform="translate(590.2 381.2) scale(4.6000000000000005)"><g transform="translate(1 1)"><g fill="none" stroke="#252729" stroke-width="1.85" stroke-linecap="round" stroke-linejoin="round"><path d="M19.31348 7.28799 A8.7 8.7 0 0 1 10.33996 20.54016"/><path d="M4.68652 16.71201 A8.7 8.7 0 0 1 13.66004 3.45984"/><circle cx="12" cy="12" r="3.25" fill="none"/><circle cx="18.15183" cy="5.84817" r="1.85" fill="none"/><circle cx="5.84817" cy="18.15183" r="1.85" fill="none"/></g></g></g><text x="650" y="552.8" text-anchor="middle" font-family="Arial,sans-serif" font-size="17" fill="#62676d">C045</text><g transform="translate(850.2 381.2) scale(4.6000000000000005)"><g transform="translate(1 1)"><g fill="none" stroke="#252729" stroke-width="1.6" stroke-linecap="round" stroke-linejoin="round"><path d="M19.72047 6.46426 A9.5 9.5 0 0 1 11.50281 21.48698"/><path d="M4.27953 17.53574 A9.5 9.5 0 0 1 12.49719 2.51302"/><circle cx="12" cy="12" r="3.25" fill="none"/><circle cx="18.71751" cy="5.28249" r="1.55" fill="#252729"/><circle cx="5.28249" cy="18.71751" r="1.55" fill="#252729"/></g></g></g><text x="910" y="552.8" text-anchor="middle" font-family="Arial,sans-serif" font-size="17" fill="#62676d">D025</text><g transform="translate(70.19999999999999 641.2) scale(4.6000000000000005)"><g transform="translate(1 1)"><g fill="none" stroke="#252729" stroke-width="1.6" stroke-linecap="round" stroke-linejoin="round"><path d="M19.89208 6.71179 A9.5 9.5 0 0 1 11.50281 21.48698"/><path d="M4.10792 17.28821 A9.5 9.5 0 0 1 12.49719 2.51302"/><circle cx="12" cy="12" r="3.25" fill="none"/><circle cx="18.71751" cy="5.28249" r="1.85" fill="#252729"/><circle cx="5.28249" cy="18.71751" r="1.85" fill="#252729"/></g></g></g><text x="130" y="812.8" text-anchor="middle" font-family="Arial,sans-serif" font-size="17" fill="#62676d">D027</text><g transform="translate(330.2 641.2) scale(4.6000000000000005)"><g transform="translate(1 1)"><g fill="none" stroke="#252729" stroke-width="1.6" stroke-linecap="round" stroke-linejoin="round"><path d="M19.89208 6.71179 A9.5 9.5 0 0 1 11.8342 21.49855"/><path d="M4.10792 17.28821 A9.5 9.5 0 0 1 12.1658 2.50145"/><circle cx="12" cy="12" r="2.08" fill="#252729"/><circle cx="18.71751" cy="5.28249" r="1.85" fill="none"/><circle cx="5.28249" cy="18.71751" r="1.85" fill="none"/></g></g></g><text x="390" y="812.8" text-anchor="middle" font-family="Arial,sans-serif" font-size="17" fill="#62676d">E027</text><g transform="translate(590.2 641.2) scale(4.6000000000000005)"><g transform="translate(1 1)"><g fill="none" stroke="#252729" stroke-width="1.6" stroke-linecap="round" stroke-linejoin="round"><path d="M20.35153 7.32486 A10 8.5 0 0 1 11.47664 20.48835"/><path d="M3.64847 16.67514 A10 8.5 0 0 1 12.52336 3.51165"/><circle cx="12" cy="12" r="3.25" fill="none"/><circle cx="19.07107" cy="5.98959" r="1.85" fill="none"/><circle cx="4.92893" cy="18.01041" r="1.85" fill="none"/></g></g></g><text x="650" y="812.8" text-anchor="middle" font-family="Arial,sans-serif" font-size="17" fill="#62676d">F027</text><g transform="translate(850.2 641.2) scale(4.6000000000000005)"><g transform="translate(1 1)"><g fill="none" stroke="#252729" stroke-width="1.85" stroke-linecap="round" stroke-linejoin="round"><path d="M20.35153 7.32486 A10 8.5 0 0 1 11.47664 20.48835"/><path d="M3.64847 16.67514 A10 8.5 0 0 1 12.52336 3.51165"/><circle cx="12" cy="12" r="3.25" fill="none"/><circle cx="19.07107" cy="5.98959" r="1.85" fill="none"/><circle cx="4.92893" cy="18.01041" r="1.85" fill="none"/></g></g></g><text x="910" y="812.8" text-anchor="middle" font-family="Arial,sans-serif" font-size="17" fill="#62676d">F045</text></svg>